<svg xmlns="http://www.w3.org/2000/svg" viewBox="0 0 128 128" role="img" aria-labelledby="title desc">
  <title id="title">Porteirinha Joga</title>
  <desc id="desc">Icone do Porteirinha Joga com escudo e bola.</desc>
  <defs>
    <linearGradient id="bg" x1="0" y1="0" x2="1" y2="1">
      <stop offset="0%" stop-color="#14532d" />
      <stop offset="100%" stop-color="#16a34a" />
    </linearGradient>
  </defs>
  <rect width="128" height="128" rx="24" fill="url(#bg)" />
  <path
    d="M64 18 95 30v24c0 22-13.8 42.2-31 50C46.8 96.2 33 76 33 54V30l31-12Z"
    fill="#f8fafc"
    opacity="0.95"
  />
  <circle cx="64" cy="58" r="22" fill="#16a34a" />
  <path
    d="M64 42 54 49l4 12h12l4-12-10-7Zm-15 22 9 6-3 11-10-7 4-10Zm30 0 4 10-10 7-3-11 9-6Zm-24 19h18"
    fill="#f8fafc"
    stroke="#f8fafc"
    stroke-linecap="round"
    stroke-linejoin="round"
    stroke-width="2"
  />
</svg>
